<?xml version="1.0" encoding="UTF-8"?>
<svg width="99px" height="26px" viewBox="0 0 99 26" version="1.1" xmlns="http://www.w3.org/2000/svg" xmlns:xlink="http://www.w3.org/1999/xlink">
    <title>Group 4</title>
    <defs>
        <linearGradient x1="50%" y1="0%" x2="50%" y2="100%" id="linearGradient-1">
            <stop stop-color="#5956E9" offset="0%"></stop>
            <stop stop-color="#424079" offset="100%"></stop>
        </linearGradient>
    </defs>
    <g id="Symbols" stroke="none" stroke-width="1" fill="none" fill-rule="evenodd">
        <g id="Header" transform="translate(-44.000000, -19.000000)">
            <g id="Group-4" transform="translate(44.000000, 19.000000)">
                <g id="Group-3">
                    <g id="Group-2">
                        <path d="M8,0 L16,0 L16,0 L16,8 C16,12.418278 12.418278,16 8,16 L0,16 L0,16 L0,8 C-5.41083001e-16,3.581722 3.581722,8.11624501e-16 8,0 Z" id="Rectangle" fill="url(#linearGradient-1)"></path>
                        <rect id="Rectangle-Copy" fill="#FAB8C4" x="8" y="0" width="16" height="16" rx="8"></rect>
                        <path d="M0,10 L8,10 C12.418278,10 16,13.581722 16,18 C16,22.418278 12.418278,26 8,26 C3.581722,26 5.41083001e-16,22.418278 0,18 L0,10 L0,10 Z" id="Rectangle-Copy" fill="#5956E9"></path>
                    </g>
                </g>
                <text id="Resolver." font-family="TTNormsPro-Bold, TT Norms Pro" font-size="16" font-weight="bold" line-spacing="20" letter-spacing="-0.2">
                    <tspan x="32" y="18" fill="#2D3748">Resolver</tspan>
                    <tspan x="94.48" y="18" fill="#5956E9">.</tspan>
                </text>
            </g>
        </g>
    </g>
</svg>